STARTFONT 2.1
FONT -FontForge-Wingdings-Book-R-Normal--32-720-32-32-P-320-MacRoman-0
SIZE 72 32 32
FONTBOUNDINGBOX 33 32 3 -7
COMMENT "Generated by fontforge, http://fontforge.sourceforge.net"
COMMENT "(c) 2006 Microsoft Corporation. All Rights Reserved."
STARTPROPERTIES 36
FOUNDRY "FontForge"
FAMILY_NAME "Wingdings"
WEIGHT_NAME "Book"
SLANT "R"
SETWIDTH_NAME "Normal"
ADD_STYLE_NAME ""
PIXEL_SIZE 32
POINT_SIZE 720
RESOLUTION_X 32
RESOLUTION_Y 32
SPACING "P"
AVERAGE_WIDTH 320
CHARSET_REGISTRY "MacRoman"
CHARSET_ENCODING "0"
FONTNAME_REGISTRY ""
CHARSET_COLLECTIONS "MacRoman"
FONT_NAME "Wingdings-Regular"
FACE_NAME "Wingdings"
COPYRIGHT "(c) 2006 Microsoft Corporation. All Rights Reserved."
FONT_VERSION "5.00x"
FONT_ASCENT 26
FONT_DESCENT 6
UNDERLINE_POSITION -4
UNDERLINE_THICKNESS 2
RAW_ASCENT 799
RAW_DESCENT 200
RELATIVE_WEIGHT 40
RELATIVE_SETWIDTH 50
SUPERSCRIPT_X 0
SUPERSCRIPT_Y 12
SUPERSCRIPT_SIZE 19
SUBSCRIPT_X 0
SUBSCRIPT_Y 12
SUBSCRIPT_SIZE 19
FIGURE_WIDTH -1
AVG_LOWERCASE_WIDTH 313
ENDPROPERTIES
CHARS 12
STARTCHAR aries
ENCODING 94
SWIDTH 1156 0
DWIDTH 37 0
BBX 33 30 3 -6
BITMAP
1F00007C00
3FC001FE00
7FE0038F00
78F0070700
F070060380
E0380E0380
E0380C0380
E01C1C0380
E01C180380
600E380700
700E380700
300E300600
0006300000
0007700000
0007700000
0007600000
0003600000
0003600000
0003600000
0003E00000
0003E00000
0003C00000
0001C00000
0001C00000
0001C00000
0001C00000
0001C00000
0001C00000
0001C00000
0001C00000
ENDCHAR
STARTCHAR taurus
ENCODING 95
SWIDTH 1054 0
DWIDTH 34 0
BBX 29 30 3 -7
BITMAP
E0000038
F80000F8
380000E0
1C0001C0
0E000380
0E000380
07000700
07000F00
03800E00
01C01C00
00F07800
007FF000
00FFF800
01E03C00
03800E00
07000700
06000300
0E000380
0C000180
0C000180
0C000180
0C000180
0C000180
06000300
06000300
03000600
01800C00
00E03800
007FF000
001FC000
ENDCHAR
STARTCHAR gemini
ENCODING 96
SWIDTH 963 0
DWIDTH 31 0
BBX 25 25 3 -1
BITMAP
E0000380
FFFFFF80
1FFFFC00
0380E000
0380E000
0380E000
0380E000
0380E000
0380E000
0380E000
0380E000
0380E000
0380E000
0380E000
0380E000
0380E000
0380E000
0380E000
0380E000
0380E000
0380E000
0380E000
0FFFF800
FFFFFF80
F0000780
ENDCHAR
STARTCHAR cancer
ENCODING 97
SWIDTH 1090 0
DWIDTH 35 0
BBX 30 23 3 0
BITMAP
001FFC00
01FFFF80
07FFFFF0
1FC007FC
3F80003C
70C00004
60600000
C0300000
C03003C0
C0300FF0
C0301C38
E0703818
70E0300C
3FC0300C
1F00300C
0000300C
00001818
80000C38
F00007F0
FF800FE0
3FFFFF80
07FFFE00
00FFE000
ENDCHAR
STARTCHAR leo
ENCODING 98
SWIDTH 940 0
DWIDTH 30 0
BBX 25 32 3 -7
BITMAP
001FC000
007FF000
00F07800
01E03C00
01C01C00
03801E00
03800E00
03800E00
03800E00
03800E00
01800E00
01C01E00
00C01C00
0FC01C00
3FE03C00
70E03800
60607800
C0307000
C0307000
C030E000
C030E000
6061E000
70E1C000
3FC1C000
0F038000
00038000
00038000
00038000
00038100
0001C780
0001FF00
00007C00
ENDCHAR
STARTCHAR virgo
ENCODING 99
SWIDTH 933 0
DWIDTH 30 0
BBX 24 30 3 -6
BITMAP
E1C700
71E780
73E780
3A79C0
3E79C0
3C79C8
3C79DC
3871DC
3871FE
3871E6
3871E7
3871E7
3871C7
3871C7
3871C7
3871C7
3871C7
3871CE
3871CE
3871CE
3871DC
3871D8
3871F8
3871F0
0001E0
0007C0
001EE0
0018E0
000060
000030
ENDCHAR
STARTCHAR libra
ENCODING 100
SWIDTH 945 0
DWIDTH 30 0
BBX 25 21 3 2
BITMAP
007F0000
01FFC000
03FFE000
07C1F000
07007000
0F007800
0E003800
0E003800
0E003800
07007000
0380E000
FFC1FF80
FFC1FF80
FFC1FF80
00000000
00000000
00000000
00000000
FFFFFF80
FFFFFF80
FFFFFF80
ENDCHAR
STARTCHAR scorpio
ENCODING 101
SWIDTH 1024 0
DWIDTH 33 0
BBX 27 30 3 -6
BITMAP
E1C30000
71E78000
73E78000
3A7DC000
3E79C000
3C79C000
3C79C000
3871C000
3871C000
3871C000
3871C000
3871C000
3871C000
3871C000
3871C000
3871C000
3871C000
3871C000
3871C000
3871C000
3871C000
3871C000
3871C000
3871C000
0001E080
0000F0C0
00007FC0
00003FE0
000000C0
00000080
ENDCHAR
STARTCHAR saggitarius
ENCODING 102
SWIDTH 928 0
DWIDTH 30 0
BBX 24 24 3 -1
BITMAP
001E00
001FFC
0007FE
00001E
00003E
000076
0000E6
0001C6
000386
180707
3C0E07
1E1C03
0F3803
07F000
03E000
01C000
03E000
077000
0E3800
1C1C00
380E00
700400
E00000
400000
ENDCHAR
STARTCHAR capricorn
ENCODING 103
SWIDTH 1096 0
DWIDTH 35 0
BBX 30 28 3 -5
BITMAP
00020000
F00F0000
F81F0000
3C3B0000
1C338000
0E738000
0E618000
06618000
07E18000
07C18000
07C1C000
07C1C000
0380C3E0
0380CFF0
0380DC38
0380D81C
0380F00C
0000700C
0000600C
0000701C
0000FC38
0000CFF0
0000C3E0
0001C000
00018000
00038000
003F0000
003E0000
ENDCHAR
STARTCHAR aquarius
ENCODING 104
SWIDTH 1064 0
DWIDTH 34 0
BBX 29 19 3 2
BITMAP
00804040
0381C0E0
07C3E3E0
1ECF6730
387C7E30
F0703838
40603018
00000000
00000000
00000000
00000000
00000000
0080C040
03C1C1E0
07C7E3E0
1ECE6F30
787C7C30
E0703818
40202010
ENDCHAR
STARTCHAR pisces
ENCODING 105
SWIDTH 779 0
DWIDTH 25 0
BBX 20 24 3 -1
BITMAP
F00070
7800E0
3C01C0
1C0180
0E0380
0E0300
070700
070700
038E00
038E00
038E00
7FFFF0
7FFFF0
038E00
038E00
038E00
070600
070700
070700
0E0380
1C0180
1C01C0
3800E0
700070
ENDCHAR
ENDFONT
